<svg xmlns="http://www.w3.org/2000/svg" viewBox="0 0 390.230776 399.808244" fill="#FFFFFF">
<g transform="translate(-69.933922,471.786404) scale(0.100000,-0.100000)" stroke="none">
<path d="M704 4708 c-3 -4 8 -10 23 -14 134 -30 449 -139 477 -165 6 -5 201
-9 435 -10 517 0 735 -10 850 -39 183 -45 322 -120 442 -240 80 -80 138 -175
181 -300 32 -93 33 -98 32 -265 -1 -152 -4 -180 -27 -268 -64 -234 -200 -435
-390 -578 -90 -67 -219 -135 -315 -165 -34 -10 -62 -22 -62 -25 0 -4 57 -39
127 -78 l127 -72 96 11 c510 57 886 293 1071 675 135 276 146 641 27 880 -160
320 -538 539 -1076 625 -73 12 -227 25 -362 31 -257 11 -1649 8 -1656 -3z"/>
<path d="M1769 4022 c-151 -50 -259 -197 -259 -352 0 -106 65 -236 147 -293
79 -54 132 -71 223 -72 75 0 93 4 150 31 83 39 145 101 184 184 27 57 31 76
31 150 0 75 -4 93 -32 152 -17 36 -50 85 -73 108 -93 93 -249 132 -371 92z"/>
<path d="M702 3265 c3 -3 119 -83 259 -178 1014 -689 1802 -1341 2601 -2148
l216 -219 424 2 c379 3 420 5 393 18 -139 67 -248 151 -535 409 -437 393 -452
406 -710 617 -183 149 -541 420 -675 511 -559 379 -1134 679 -1762 919 -174
67 -226 84 -211 69z"/>
<path d="M1522 1917 l3 -574 45 -89 c37 -74 62 -107 145 -190 90 -91 111 -106
205 -152 160 -78 230 -93 455 -99 105 -3 187 -2 183 2 -4 5 -34 17 -65 27 -88
30 -157 87 -196 163 -42 82 -47 138 -47 511 0 198 -4 364 -8 370 -10 15 -172
157 -277 244 -49 41 -139 115 -200 165 -60 50 -140 115 -178 144 l-67 53 2
-575z"/>
</g>
</svg>
