<svg xmlns="http://www.w3.org/2000/svg" viewBox="0 0 373.000000 112.000000">
<g transform="translate(0.000000,112.000000) scale(0.100000,-0.100000)"
fill="#FFFFFF" stroke="none">
<path d="M718 1070 c-157 -28 -356 -108 -487 -194 -115 -77 -184 -168 -151
-199 10 -9 11 -7 6 10 -6 17 2 33 36 69 113 123 377 249 602 289 224 39 417
-1 477 -98 40 -66 13 -175 -67 -273 -47 -57 -177 -155 -265 -200 -84 -42 -207
-84 -247 -84 l-28 0 73 223 c74 227 80 247 64 247 -17 0 -28 -28 -97 -244 -60
-189 -72 -219 -93 -227 -22 -9 -22 -11 -8 -27 15 -16 15 -23 -2 -82 -29 -100
-32 -118 -20 -125 15 -10 18 -6 45 96 13 51 26 94 28 96 2 2 54 -19 115 -47
153 -69 214 -84 341 -84 117 -1 199 18 264 61 l39 25 -7 -23 c-46 -158 -57
-230 -39 -236 16 -6 38 49 75 187 31 117 41 140 52 121 12 -19 46 -12 72 15
23 22 110 64 134 64 5 0 8 -16 7 -36 -3 -53 22 -66 72 -37 34 20 41 21 51 8
18 -21 47 -18 106 9 l52 24 -5 -39 c-7 -47 9 -52 27 -8 11 25 17 29 34 24 53
-18 104 -17 144 4 23 12 43 21 45 21 2 0 2 -13 -1 -30 -6 -42 7 -38 53 17 l40
48 5 -29 c7 -40 31 -54 71 -39 27 11 34 10 44 -4 11 -15 15 -15 42 5 27 19 32
20 43 7 14 -17 43 -19 70 -5 13 7 21 7 25 0 9 -15 36 -12 56 6 16 15 20 15 41
0 14 -10 43 -16 76 -16 83 0 235 -19 306 -39 36 -10 68 -16 71 -13 18 19 -10
30 -143 56 l-67 14 160 1 c228 1 528 -34 599 -71 14 -8 17 -7 14 3 -17 52
-486 99 -785 79 -208 -14 -226 -12 -221 33 3 29 0 32 -26 35 -21 3 -37 -4 -60
-26 -46 -44 -74 -56 -92 -41 -10 8 -13 21 -10 35 4 16 1 26 -12 33 -21 11 -46
-1 -84 -40 -32 -34 -76 -48 -89 -28 -5 8 -9 26 -9 42 0 33 -16 34 -48 4 -30
-27 -31 -29 23 121 20 57 34 106 31 109 -13 14 -36 -24 -66 -110 -39 -114 -50
-132 -100 -157 -44 -22 -91 -26 -122 -9 -20 11 -20 12 17 44 23 19 34 34 28
38 -6 4 -25 -4 -41 -18 -16 -14 -32 -25 -35 -25 -2 0 13 50 34 112 21 61 35
116 32 121 -10 16 -31 -21 -59 -107 -38 -116 -47 -129 -102 -159 -84 -45 -124
-34 -64 19 34 30 36 34 21 49 -16 16 -18 16 -42 1 -14 -10 -30 -30 -37 -45 -9
-23 -63 -61 -86 -61 -3 0 -3 18 1 41 6 35 4 41 -13 46 -13 3 -18 11 -15 19 3
8 -1 14 -10 14 -9 0 -19 -9 -22 -21 -6 -18 -41 -39 -66 -39 -5 0 -9 8 -9 18 0
21 -18 42 -36 42 -7 0 -26 -12 -43 -26 l-30 -25 10 31 c15 42 2 51 -23 17 -32
-44 -116 -79 -102 -42 8 20 -14 45 -39 45 -11 0 -30 -9 -42 -20 -12 -11 -36
-25 -53 -30 -27 -7 -32 -6 -32 9 0 10 -9 26 -21 37 -19 17 -23 17 -47 3 -15
-8 -32 -26 -39 -39 -18 -35 -16 -89 2 -96 26 -10 65 6 77 31 6 13 21 26 33 29
13 3 30 9 38 12 12 4 16 -1 15 -24 -1 -16 2 -34 6 -41 12 -19 46 -12 72 16 26
28 114 68 114 52 0 -5 -7 -27 -16 -48 -13 -32 -28 -47 -77 -74 -162 -89 -355
-80 -584 25 -40 18 -73 35 -73 38 0 3 31 14 69 23 132 34 301 129 398 224 186
182 181 368 -13 444 -50 19 -80 23 -194 25 -74 1 -156 -1 -182 -6z m392 -630
c0 -11 -4 -20 -9 -20 -14 0 -23 18 -16 30 10 17 25 11 25 -10z m173 -5 c-3 -8
-9 -15 -14 -15 -10 0 -12 24 -3 33 11 11 24 -3 17 -18z m217 1 c0 -18 -10 -29
-40 -44 -22 -11 -40 -17 -40 -13 0 10 31 55 48 69 23 18 32 15 32 -12z m310
10 c0 -2 -8 -10 -17 -17 -16 -13 -17 -12 -4 4 13 16 21 21 21 13z m620 -31
c-13 -14 -26 -23 -28 -20 -7 7 29 45 41 45 6 0 0 -11 -13 -25z m185 -5 c-10
-11 -23 -20 -28 -20 -6 0 0 11 13 25 27 29 42 25 15 -5z m-1531 -31 c-23 -25
-34 -24 -34 4 0 32 9 38 32 26 19 -10 19 -12 2 -30z m166 -3 c-24 -24 -35 -16
-26 19 6 22 9 23 26 13 20 -13 20 -13 0 -32z m220 0 c0 -2 -7 -7 -16 -10 -8
-3 -12 -2 -9 4 6 10 25 14 25 6z m-140 -213 c-11 -17 -11 -17 -6 0 3 10 6 24
7 30 0 9 2 9 5 0 3 -7 0 -20 -6 -30z"/>
</g>
<circle cx="311" cy="58" r="13" fill="#B68B6E"/>
</svg>
